<svg xmlns="http://www.w3.org/2000/svg" xmlns:xlink="http://www.w3.org/1999/xlink" viewBox="728.3562780761719 583.0746618652344 962.5387255859375 580.633818359375"><path fill="#373A43" d="M1067.51 807.307C1077.86 807.552 1085.9 818.256 1085 827.868C1083.47 844.108 1078.05 860.651 1074.92 876.927C1067.93 913.29 1061.07 951.097 1061.49 988.225C1061.6 996.753 1062.8 1005.18 1063.76 1013.64C1065.73 1031.1 1063.31 1046.7 1082.55 1054.79C1108.13 1065.55 1142.22 1065.47 1163.33 1045.38C1169.46 1039.55 1174.49 1030.81 1181.64 1026.87C1185.38 1025 1187.91 1025.67 1190.29 1021.55C1198.43 1007.46 1201.43 990.057 1207.06 975.282C1222.75 934.089 1239.03 881.347 1269.6 849.142C1275.53 842.885 1286.87 835.955 1294.31 837.085C1330.77 842.617 1345.26 909.497 1365.47 934.145C1374.03 944.576 1396.11 949.395 1407.03 942.176C1413.13 938.308 1418.26 933.223 1424.7 929.856C1426.45 928.943 1435.52 929.678 1435.64 928.791C1436.84 919.469 1435.93 909.783 1436.42 900.324C1437.55 878.703 1445.83 858.071 1459.98 841.678C1478.69 820.305 1505.3 809.887 1532.77 808.534C1543.96 807.982 1548.23 810.378 1548.6 817.045C1548.62 817.56 1561.26 820.271 1565.14 823.71C1563.55 834.847 1571.08 832.922 1577.62 843.332C1585.93 899.521 1500.9 916.161 1610.34 943.448C1620.46 945.97 1624.14 953.861 1628.48 963.12C1632.06 965.489 1638.92 963.672 1642.75 965.698C1670.43 980.334 1678.55 1017.25 1667.82 1044.64C1654.78 1077.93 1615.09 1098.21 1584.29 1111.89C1544.59 1126.73 1491.94 1141.59 1451.18 1123.4C1414.41 1107 1463.28 1087.26 1478.72 1082.14C1467.88 1058.84 1456.01 1037.29 1449.11 1012.2C1442.76 989.073 1441.28 966.257 1434.6 943.259C1430.53 946.68 1427.16 951.799 1423.89 954.298C1408.75 965.881 1397.42 975.09 1380.44 983.703C1386.43 1004.85 1401.55 1033.18 1406.37 1056.39C1407.21 1060.46 1404.44 1064.91 1405.32 1068.39C1408.95 1082.64 1410.28 1084.26 1409.5 1099.31C1409.2 1099.84 1408.9 1100.36 1408.59 1100.88C1390.81 1130.23 1378.53 1092.99 1371.37 1079.89C1369.91 1077.23 1362.98 1079.22 1359.39 1076.63C1355.78 1068.97 1359.7 1067.13 1360.21 1058.86C1357.96 1052.93 1354.17 1051.99 1348.42 1049.33C1347.38 1035.95 1344.73 1021.09 1341.43 1007.69C1335 979.241 1304.04 1007.48 1290.87 1015.3C1260.08 1033.59 1258.24 1036 1226.54 1021.54C1211.19 1043.23 1190.72 1081.74 1206.27 1108.33C1209.84 1114.44 1217.75 1122.22 1218.54 1129.06C1218.88 1130.91 1218.03 1132.88 1216.63 1134.14C1201.34 1147.91 1174.63 1149.99 1160.32 1133.68C1153.22 1125.58 1156.6 1114.21 1157.69 1104.33C1156.01 1103.13 1142.88 1107.95 1139.71 1108.99C1120.05 1115.38 1096.82 1109.71 1077.13 1105.11C953.416 1076.21 1044.7 908.43 1035.45 827.199C1034.94 822.7 1062.31 808.901 1067.51 807.307ZM1586.43 1063.18C1599.8 1057.35 1640.07 1037.53 1627.77 1018.02C1604.71 981.455 1548.37 982.111 1516.23 957.156C1508.09 950.811 1506.68 945.433 1501.61 938.372C1496.81 957.16 1495.94 974.501 1505.83 992.005C1511.86 1002.66 1517.39 1002.6 1510.85 1015.49C1509.03 1019.08 1519.35 1041.87 1521.12 1046.32C1516.12 1054.48 1500.29 1066.56 1501.37 1074.96C1512 1086.2 1572.66 1069.51 1586.43 1063.18ZM1264.72 979.371C1272.97 975.939 1312.81 959.98 1316.5 955.143C1318.11 945.906 1302.19 912.104 1290 909.69C1289.19 909.529 1287.3 909.413 1286.51 909.353C1275.66 912.725 1241.86 976.343 1241.28 987.663L1243.09 988.637C1245.13 987.956 1261.63 980.782 1264.72 979.371ZM1480.82 903.633C1478.37 906.421 1476.1 908.251 1475.6 911.782C1478.14 918.687 1488.11 914.916 1493.43 922.773C1493.03 924.58 1492.72 926.334 1492.6 928.183L1494.84 930.643C1496.77 932.727 1497.85 934.017 1500.17 935.742C1498.35 923.058 1498.18 921.974 1506.02 910.785C1512.71 901.239 1560.37 860.083 1523.77 859.16C1501 864.696 1480.34 877.276 1480.82 903.633Z"/><path fill="#888D97" d="M843.063 902.549C846.66 902.327 850.26 902.168 853.862 902.073C882.785 901.374 908.438 903.102 930.404 924.257C952.653 945.684 955.962 972.332 955.992 1001.68C956.066 1032.66 955.686 1065.66 932.142 1089.04C911.505 1109.53 888.445 1110.69 861.25 1110.86C829.151 1110.25 798.203 1115.11 772.887 1090.58C744.447 1063.46 747.604 1030.03 746.895 994.444C746.137 956.439 760.496 921.082 798.726 907.836C814.328 902.431 826.93 902.68 843.063 902.549ZM859.487 1088.17C904.107 1083.6 936.589 1043.75 932.058 999.126C927.527 954.503 887.697 921.99 843.07 926.487C798.395 930.988 765.839 970.871 770.375 1015.54C774.911 1060.21 814.819 1092.74 859.487 1088.17Z"/><path fill="#373A43" d="M826.702 677.433C859.691 676.854 897.903 672.95 925.4 693.478C961.368 720.33 954.666 762.427 955.504 801.852C955.936 822.193 950.902 839.79 938.348 855.987C922.615 876.458 904.032 881.523 879.615 884.618C868.406 884.961 856.839 884.433 845.772 884.645C819.414 885.243 794.435 884.464 773.48 866.17C745.869 842.065 747.108 812.187 747.981 778.762C748.705 751.108 746.973 723.919 767.11 701.755C784.544 682.568 802.21 678.778 826.702 677.433ZM862.952 842.584C867.129 840.86 866.365 838.438 872.616 836.48L873.226 834.636C879.733 828.196 885.89 824.219 893.583 816.184C893.501 800.073 893.255 783.947 894.727 767.888C895.189 762.845 895.254 757.82 895.021 752.762L893.349 751.481C895.275 748.915 895.98 748.327 896.655 745.136C894.517 742.221 895.484 743.178 891.904 741.649C884.839 739.052 865.34 719.976 855.142 713.415C852.664 710.965 852.827 711.069 849.443 710.206C846.35 710.992 845.505 710.486 844.513 713.816C839.992 717.728 813.686 741.625 812.324 742.27C801.894 744.244 804.87 763.014 807.031 770.354L808.833 770.686C810.926 787.526 809.026 804.519 810.773 818.908C816.545 823.258 826.709 830.87 831.551 835.855L831.793 838.567C834.136 839.204 834.675 838.869 837.058 838.392C838.407 842.939 837.409 845.05 842.784 846.137C854.853 850.112 850.851 847.343 861.39 843.183L862.952 842.584Z" class="" stroke="#373A43" stroke-width="1.32" stroke-linejoin="round"/><path fill="#373A43" d="M844.513 713.816C845.505 710.486 846.35 710.992 849.443 710.206C852.827 711.069 852.664 710.965 855.142 713.415C854.456 720.153 870.007 750.241 876.816 752.711C881.14 752.267 888.389 749.895 891.854 747.144C893.006 746.23 892.264 742.977 891.904 741.649C895.484 743.178 894.517 742.221 896.655 745.136C895.98 748.327 895.275 748.915 893.349 751.481L895.021 752.762L879.117 759.573C879.141 784.127 872.801 807.666 871.105 831.985C871.053 832.73 872.615 834.198 873.226 834.636L872.616 836.48C866.365 838.438 867.129 840.86 862.952 842.584C865.723 828.778 872.049 773.924 871.321 760.767C868.568 756.675 865.055 751.136 862.018 747.421C853.14 754.842 843.502 761.305 833.267 766.703C835.599 779.874 837.493 789.631 838.671 803.018C839.829 816.172 839.336 833.942 842.784 846.137C837.409 845.05 838.407 842.939 837.058 838.392C834.675 838.869 834.136 839.204 831.793 838.567L831.551 835.855L833.144 834.863C835.176 830.025 828.826 772.972 826.852 764.383C820.665 759.011 815.113 755.904 807.869 752.294C807.809 758.639 808.85 764.324 808.833 770.686L807.031 770.354C804.87 763.014 801.894 744.244 812.324 742.27L811.537 744.758C813.138 749.434 825.127 754.543 831.197 759.301L832.211 760.103L858.079 742.384C856.434 736.732 849.067 716.585 844.513 713.816Z" class="" stroke="#373A43" stroke-width="1.32" stroke-linejoin="round"/><path fill="#888D97" d="M1082.66 607.405C1099.83 606.858 1116.63 607.929 1128.13 623.074C1132.57 628.928 1136.05 636.824 1127.93 641.302C1125.15 643.201 1113.5 639.125 1110.29 636.487C1097.22 625.76 1050.5 638.535 1044.68 653.396C1045.28 675.107 1118.4 679.736 1138.91 714.419C1143.98 722.896 1145.28 733.101 1142.5 742.577C1133.37 774.682 1058.6 800.181 1028.99 785.085C1018.03 779.495 1011.62 780.406 1004.97 767.77C995.085 749.836 1004.83 732.886 1021.85 725.325C1029.68 721.85 1041.46 715.721 1049.89 716.347C1052.62 718.189 1051.81 716.958 1052.46 720.118C1047.38 727.555 1003.81 751.687 1028.04 761.942C1050.76 771.565 1155.67 744.048 1099.83 712.141C1083.33 700.537 1048.68 695.312 1034.34 682.937C983.962 639.454 1048.44 612.401 1082.66 607.405Z"/><path fill="#888D97" d="M1241.14 716.773C1245.67 695.529 1253.13 676.243 1270.69 662.729C1276.2 656.516 1294.37 659.031 1297.13 666.329C1302.94 681.731 1300.81 675.861 1313.49 683.147C1326.42 690.578 1333.81 713.085 1327.29 726.708C1322.72 742.214 1313.97 756.143 1301.28 766.618C1285.03 780.033 1257.97 775.179 1245.74 758.503C1237.1 746.716 1238.92 730.579 1241.14 716.773ZM1279.58 753.573C1292.11 744.658 1300.25 730.535 1303.17 715.486C1305.53 703.325 1302.01 687.325 1287.73 684.867C1261.76 700.294 1253.37 762.963 1279.58 753.573Z"/><path fill="#888D97" d="M1350.54 660.107C1351.71 660.065 1352.88 660.064 1354.04 660.106C1375.36 660.755 1367.6 699.416 1366.46 713.543C1383.44 696.21 1405.08 644.187 1437.11 671.616C1440.07 674.15 1440.11 688.81 1440.34 693.028C1441.71 718.365 1435.11 745.753 1447.98 769.149C1449.91 772.652 1449.76 774.669 1448.47 778.125C1439.84 785.537 1429.24 776.84 1423.56 769.745L1422.85 768.852C1407.93 744.521 1409.98 726.643 1410.16 699.937C1410.18 697.153 1410.11 695.397 1408.31 693.71C1402.97 696.732 1390.54 718.908 1385.85 725.274C1379.06 734.495 1368.08 769.101 1357.96 772.217C1353.09 771.4 1343.16 767.001 1341.23 762.535C1334.67 747.345 1339.83 667.991 1350.54 660.107Z"/><path fill="#888D97" d="M1503.46 658.506C1515.22 657.397 1516.75 656.796 1524.3 666.016C1529.42 667.596 1531.81 668.525 1536.67 670.734C1537.49 672.568 1540.01 678.26 1540.16 680.135C1541.9 701.712 1517.78 723.38 1501.55 733.993C1495.22 738.126 1485.68 736.737 1483.5 739.569C1484.06 741.913 1484.93 743.759 1486.55 745.093C1514.4 768.018 1534.76 745.508 1559.97 736.165C1561.11 735.744 1561.56 736.956 1562.5 738.206C1562.77 742.323 1562.11 742.872 1560.05 746.692C1542.14 769.189 1506.38 783.213 1479.57 768.741C1458.4 757.311 1449.88 734.134 1455.94 711.282C1463.22 683.845 1476.04 667.099 1503.46 658.506ZM1484.64 718.08C1494.14 711.514 1520.33 690.711 1515.49 677.406L1513.1 675.659C1500.41 682.892 1481.93 702.399 1480.86 717.535C1483.49 718.849 1482.26 718.851 1484.64 718.08Z"/><path fill="#888D97" d="M1169.22 668.996L1169.72 667.933C1173.39 659.969 1173.2 654.445 1174.95 646.205C1177.76 633.02 1177.17 591.817 1201.04 603.717C1204.07 605.224 1205.62 606.817 1207.01 609.742C1207.7 622.621 1199.51 645.323 1199.56 662.881C1209.9 662.078 1238.68 657.531 1243 668.924C1238.28 677.793 1206.1 681.644 1195.14 685.399C1193.6 704.865 1191.94 720.732 1195 740.463C1201.04 779.443 1215.36 754.353 1231.82 744.856C1241.13 753.921 1236.1 760.557 1227.6 768.353C1212.64 782.091 1191.67 786.672 1177.49 768.415C1162.53 749.16 1163.6 722.022 1166.39 699.008C1166.53 695.008 1167.33 694.386 1165.42 692.201C1155.98 690.575 1144.35 688.871 1137.35 681.706L1136.67 679.608C1140.86 672.903 1161.23 670.562 1169.22 668.996Z"/><path fill="#A2A2A2" fill-opacity="0.019607844" d="M1327.29 726.708L1329.99 727.91C1330.79 731.844 1331.18 734.508 1329.19 738.061C1324.84 745.82 1320.28 754.624 1314.5 761.377C1280.09 801.596 1249.17 760.43 1237.05 766.191C1228.63 770.194 1222.99 780.375 1213.18 782.976C1203.15 785.634 1188.37 786.18 1179.45 780.324C1172.41 775.704 1167.23 766.17 1165.81 758.026C1165.59 756.735 1165.32 755.462 1165.06 754.179C1153.54 747.184 1162.13 749.546 1160.8 740.187C1158.47 740.033 1159.24 740.263 1157.11 739.382L1157.39 737.254C1159.64 737.119 1158.87 737.344 1160.92 736.443L1161.04 733.791C1155.56 726.345 1162.85 724.106 1160.99 716.19L1157.6 715.612C1156.57 711.548 1152.55 699.072 1153.64 696.238C1159.76 694.285 1158.47 697.844 1166.39 699.008C1163.6 722.022 1162.53 749.16 1177.49 768.415C1191.67 786.672 1212.64 782.091 1227.6 768.353C1236.1 760.557 1241.13 753.921 1231.82 744.856C1233.66 745.228 1235.02 745.466 1236.88 745.7C1240.15 737.998 1234.05 726.85 1241.14 716.773C1238.92 730.579 1237.1 746.716 1245.74 758.503C1257.97 775.179 1285.03 780.033 1301.28 766.618C1313.97 756.143 1322.72 742.214 1327.29 726.708Z"/></svg>